<mxfile host="65bd71144e">
    <diagram id="WthRq4ZXqGY8DZ1PD8tO" name="Layers">
        <mxGraphModel dx="7520" dy="4642" grid="1" gridSize="10" guides="1" tooltips="1" connect="1" arrows="1" fold="1" page="1" pageScale="1" pageWidth="1654" pageHeight="1169" math="0" shadow="0">
            <root>
                <mxCell id="0"/>
                <mxCell id="117" value="Management" style="locked=1;" parent="0"/>
                <mxCell id="118" value="Cloud Provider" style="shape=ext;double=1;rounded=0;whiteSpace=wrap;html=1;fillColor=#EDEDED;gradientColor=none;fontSize=30;fontStyle=1;labelPosition=center;verticalLabelPosition=bottom;align=center;verticalAlign=top;dashed=1;" parent="117" vertex="1">
                    <mxGeometry x="160" y="1274" width="2960" height="960" as="geometry"/>
                </mxCell>
                <mxCell id="119" value="Public Cloud" style="locked=1;" parent="0"/>
                <mxCell id="120" value="Azure Public Cloud" style="shape=ext;double=1;rounded=0;whiteSpace=wrap;html=1;fillColor=#EDEDED;gradientColor=none;fontSize=30;fontStyle=1;labelPosition=center;verticalLabelPosition=bottom;align=center;verticalAlign=top;dashed=1;" parent="119" vertex="1">
                    <mxGeometry x="160" y="69.5" width="800" height="960" as="geometry"/>
                </mxCell>
                <mxCell id="121" value="AWS Public Cloud" style="shape=ext;double=1;rounded=0;whiteSpace=wrap;html=1;fillColor=#EDEDED;gradientColor=none;fontSize=30;fontStyle=1;labelPosition=center;verticalLabelPosition=bottom;align=center;verticalAlign=top;dashed=1;" parent="119" vertex="1">
                    <mxGeometry x="1120" y="70" width="800" height="959.5" as="geometry"/>
                </mxCell>
                <mxCell id="122" value="Public Cloud" style="rounded=0;whiteSpace=wrap;html=1;labelBorderColor=none;fontSize=30;strokeWidth=2;fillColor=#e1d5e7;strokeColor=#9673a6;fontStyle=1" parent="119" vertex="1">
                    <mxGeometry x="160" y="10" width="1760" height="60" as="geometry"/>
                </mxCell>
                <mxCell id="1" value="Private Cloud" style="locked=1;" parent="0"/>
                <mxCell id="15" value="vSphere 7.0" style="shape=ext;double=1;rounded=0;whiteSpace=wrap;html=1;fillColor=#EDEDED;gradientColor=none;fontSize=30;fontStyle=1;labelPosition=center;verticalLabelPosition=bottom;align=center;verticalAlign=top;dashed=1;" parent="1" vertex="1">
                    <mxGeometry x="2081" y="70" width="800" height="969.5" as="geometry"/>
                </mxCell>
                <mxCell id="16" value="vSphere 6.7" style="shape=ext;double=1;rounded=0;whiteSpace=wrap;html=1;fillColor=#EDEDED;gradientColor=none;fontSize=30;fontStyle=1;labelPosition=center;verticalLabelPosition=bottom;align=center;verticalAlign=top;labelBorderColor=none;strokeWidth=2;" parent="1" vertex="1">
                    <mxGeometry x="3045" y="70" width="800" height="969.5" as="geometry"/>
                </mxCell>
                <mxCell id="35" value="Diode" style="shape=ext;double=1;rounded=0;whiteSpace=wrap;html=1;fillColor=#EDEDED;gradientColor=none;fontSize=30;fontStyle=1;labelPosition=center;verticalLabelPosition=middle;align=center;verticalAlign=middle;labelBorderColor=none;strokeWidth=2;dashed=1;" parent="1" vertex="1">
                    <mxGeometry x="3340" y="1169" width="210" height="130" as="geometry"/>
                </mxCell>
                <mxCell id="63" value="vSphere 6.7" style="shape=ext;double=1;rounded=0;whiteSpace=wrap;html=1;fillColor=#EDEDED;gradientColor=none;fontSize=30;fontStyle=1;labelPosition=center;verticalLabelPosition=bottom;align=center;verticalAlign=top;labelBorderColor=none;strokeWidth=2;" parent="1" vertex="1">
                    <mxGeometry x="4010" y="70" width="800" height="969.5" as="geometry"/>
                </mxCell>
                <mxCell id="64" value="Safe Hands" style="shape=ext;double=1;rounded=0;whiteSpace=wrap;html=1;fillColor=#EDEDED;gradientColor=none;fontSize=30;fontStyle=1;labelPosition=center;verticalLabelPosition=middle;align=center;verticalAlign=middle;labelBorderColor=none;strokeWidth=2;dashed=1;" parent="1" vertex="1">
                    <mxGeometry x="4305" y="1169" width="210" height="130" as="geometry"/>
                </mxCell>
                <mxCell id="101" value="Private Cloud" style="rounded=0;whiteSpace=wrap;html=1;labelBorderColor=none;fontSize=30;strokeWidth=2;fillColor=#e1d5e7;strokeColor=#9673a6;fontStyle=1" parent="1" vertex="1">
                    <mxGeometry x="2080" y="10" width="2730" height="60" as="geometry"/>
                </mxCell>
                <mxCell id="38" value="Environments" style="locked=1;" parent="0"/>
                <mxCell id="39" value="Development" style="shape=ext;double=1;rounded=0;whiteSpace=wrap;html=1;fontSize=30;fontStyle=1;labelPosition=center;verticalLabelPosition=bottom;align=center;verticalAlign=top;dashed=1;" parent="38" vertex="1">
                    <mxGeometry x="310" y="1334" width="1210" height="830" as="geometry"/>
                </mxCell>
                <mxCell id="42" value="Management and Monitoring" style="shape=ext;double=1;rounded=0;whiteSpace=wrap;html=1;fontSize=30;fontStyle=1;labelPosition=center;verticalLabelPosition=bottom;align=center;verticalAlign=top;dashed=1;" parent="38" vertex="1">
                    <mxGeometry x="1740" y="1341" width="1210" height="824" as="geometry"/>
                </mxCell>
                <mxCell id="44" value="DEV" style="shape=ext;double=1;rounded=0;whiteSpace=wrap;html=1;fontSize=30;fontStyle=1;labelPosition=center;verticalLabelPosition=bottom;align=center;verticalAlign=top;dashed=1;" parent="38" vertex="1">
                    <mxGeometry x="640" y="690" width="230" height="210" as="geometry"/>
                </mxCell>
                <mxCell id="45" value="TEST" style="shape=ext;double=1;rounded=0;whiteSpace=wrap;html=1;fontSize=30;fontStyle=1;labelPosition=center;verticalLabelPosition=bottom;align=center;verticalAlign=top;dashed=1;" parent="38" vertex="1">
                    <mxGeometry x="640" y="430" width="230" height="210" as="geometry"/>
                </mxCell>
                <mxCell id="46" value="PROD" style="shape=ext;double=1;rounded=0;whiteSpace=wrap;html=1;fontSize=30;fontStyle=1;labelPosition=center;verticalLabelPosition=bottom;align=center;verticalAlign=top;dashed=1;" parent="38" vertex="1">
                    <mxGeometry x="640" y="170" width="230" height="210" as="geometry"/>
                </mxCell>
                <mxCell id="47" value="DEV" style="shape=ext;double=1;rounded=0;whiteSpace=wrap;html=1;fontSize=30;fontStyle=1;labelPosition=center;verticalLabelPosition=bottom;align=center;verticalAlign=top;dashed=1;" parent="38" vertex="1">
                    <mxGeometry x="2560" y="690" width="230" height="210" as="geometry"/>
                </mxCell>
                <mxCell id="48" value="TEST" style="shape=ext;double=1;rounded=0;whiteSpace=wrap;html=1;fontSize=30;fontStyle=1;labelPosition=center;verticalLabelPosition=bottom;align=center;verticalAlign=top;dashed=1;" parent="38" vertex="1">
                    <mxGeometry x="2560" y="430" width="230" height="210" as="geometry"/>
                </mxCell>
                <mxCell id="49" value="PROD" style="shape=ext;double=1;rounded=0;whiteSpace=wrap;html=1;fontSize=30;fontStyle=1;labelPosition=center;verticalLabelPosition=bottom;align=center;verticalAlign=top;dashed=1;" parent="38" vertex="1">
                    <mxGeometry x="2560" y="170" width="230" height="210" as="geometry"/>
                </mxCell>
                <mxCell id="50" value="DEV" style="shape=ext;double=1;rounded=0;whiteSpace=wrap;html=1;fontSize=30;fontStyle=1;labelPosition=center;verticalLabelPosition=bottom;align=center;verticalAlign=top;dashed=1;" parent="38" vertex="1">
                    <mxGeometry x="1620" y="690" width="230" height="210" as="geometry"/>
                </mxCell>
                <mxCell id="124" style="edgeStyle=none;html=1;entryX=0.613;entryY=1.214;entryDx=0;entryDy=0;entryPerimeter=0;fontSize=30;fontStyle=1" parent="38" source="51" target="52" edge="1">
                    <mxGeometry relative="1" as="geometry"/>
                </mxCell>
                <mxCell id="51" value="TEST" style="shape=ext;double=1;rounded=0;whiteSpace=wrap;html=1;fontSize=30;fontStyle=1;labelPosition=center;verticalLabelPosition=bottom;align=center;verticalAlign=top;dashed=1;" parent="38" vertex="1">
                    <mxGeometry x="1620" y="430" width="230" height="210" as="geometry"/>
                </mxCell>
                <mxCell id="52" value="PROD" style="shape=ext;double=1;rounded=0;whiteSpace=wrap;html=1;fontSize=30;fontStyle=1;labelPosition=center;verticalLabelPosition=bottom;align=center;verticalAlign=top;dashed=1;" parent="38" vertex="1">
                    <mxGeometry x="1620" y="170" width="230" height="210" as="geometry"/>
                </mxCell>
                <mxCell id="53" value="DEV" style="shape=ext;double=1;rounded=0;whiteSpace=wrap;html=1;fontSize=30;fontStyle=1;labelPosition=center;verticalLabelPosition=bottom;align=center;verticalAlign=top;dashed=1;" parent="38" vertex="1">
                    <mxGeometry x="3520" y="690" width="230" height="210" as="geometry"/>
                </mxCell>
                <mxCell id="54" value="TEST" style="shape=ext;double=1;rounded=0;whiteSpace=wrap;html=1;fontSize=30;fontStyle=1;labelPosition=center;verticalLabelPosition=bottom;align=center;verticalAlign=top;dashed=1;" parent="38" vertex="1">
                    <mxGeometry x="3520" y="430" width="230" height="210" as="geometry"/>
                </mxCell>
                <mxCell id="55" value="PROD" style="shape=ext;double=1;rounded=0;whiteSpace=wrap;html=1;fontSize=30;fontStyle=1;labelPosition=center;verticalLabelPosition=bottom;align=center;verticalAlign=top;dashed=1;" parent="38" vertex="1">
                    <mxGeometry x="3520" y="170" width="230" height="210" as="geometry"/>
                </mxCell>
                <mxCell id="56" value="Management" style="shape=ext;double=1;rounded=0;whiteSpace=wrap;html=1;fontSize=30;fontStyle=1;labelPosition=center;verticalLabelPosition=bottom;align=center;verticalAlign=top;dashed=1;" parent="38" vertex="1">
                    <mxGeometry x="3100" y="180" width="117" height="730" as="geometry"/>
                </mxCell>
                <mxCell id="59" value="DEV" style="shape=ext;double=1;rounded=0;whiteSpace=wrap;html=1;fontSize=30;fontStyle=1;labelPosition=center;verticalLabelPosition=bottom;align=center;verticalAlign=top;dashed=1;" parent="38" vertex="1">
                    <mxGeometry x="4490" y="680" width="230" height="210" as="geometry"/>
                </mxCell>
                <mxCell id="60" value="TEST" style="shape=ext;double=1;rounded=0;whiteSpace=wrap;html=1;fontSize=30;fontStyle=1;labelPosition=center;verticalLabelPosition=bottom;align=center;verticalAlign=top;dashed=1;" parent="38" vertex="1">
                    <mxGeometry x="4490" y="420" width="230" height="210" as="geometry"/>
                </mxCell>
                <mxCell id="61" value="PROD" style="shape=ext;double=1;rounded=0;whiteSpace=wrap;html=1;fontSize=30;fontStyle=1;labelPosition=center;verticalLabelPosition=bottom;align=center;verticalAlign=top;dashed=1;" parent="38" vertex="1">
                    <mxGeometry x="4490" y="160" width="230" height="210" as="geometry"/>
                </mxCell>
                <mxCell id="62" value="Management" style="shape=ext;double=1;rounded=0;whiteSpace=wrap;html=1;fontSize=30;fontStyle=1;labelPosition=center;verticalLabelPosition=bottom;align=center;verticalAlign=top;dashed=1;" parent="38" vertex="1">
                    <mxGeometry x="4100" y="690" width="117" height="200" as="geometry"/>
                </mxCell>
                <mxCell id="65" value="Management" style="shape=ext;double=1;rounded=0;whiteSpace=wrap;html=1;fontSize=30;fontStyle=1;labelPosition=center;verticalLabelPosition=bottom;align=center;verticalAlign=top;dashed=1;" parent="38" vertex="1">
                    <mxGeometry x="4100" y="420" width="117" height="190" as="geometry"/>
                </mxCell>
                <mxCell id="66" value="Management" style="shape=ext;double=1;rounded=0;whiteSpace=wrap;html=1;fontSize=30;fontStyle=1;labelPosition=center;verticalLabelPosition=bottom;align=center;verticalAlign=top;dashed=1;" parent="38" vertex="1">
                    <mxGeometry x="4100" y="160" width="117" height="190" as="geometry"/>
                </mxCell>
                <mxCell id="27" value="PaaS" style="locked=1;" parent="0"/>
                <mxCell id="28" value="KIND" style="shape=ext;double=1;rounded=1;whiteSpace=wrap;html=1;fontSize=25;fillColor=#dae8fc;strokeColor=#6c8ebf;fontStyle=1" parent="27" vertex="1">
                    <mxGeometry x="450" y="1840" width="170" height="170" as="geometry"/>
                </mxCell>
                <mxCell id="71" value="KIND" style="shape=ext;double=1;rounded=1;whiteSpace=wrap;html=1;fontSize=25;fillColor=#dae8fc;strokeColor=#6c8ebf;fontStyle=1" parent="27" vertex="1">
                    <mxGeometry x="840" y="1840" width="170" height="170" as="geometry"/>
                </mxCell>
                <mxCell id="73" value="KIND" style="shape=ext;double=1;rounded=1;whiteSpace=wrap;html=1;fontSize=25;fillColor=#dae8fc;strokeColor=#6c8ebf;fontStyle=1" parent="27" vertex="1">
                    <mxGeometry x="1230" y="1840" width="170" height="170" as="geometry"/>
                </mxCell>
                <mxCell id="75" value="Management" style="shape=ext;double=1;rounded=1;whiteSpace=wrap;html=1;fontSize=25;fillColor=#dae8fc;strokeColor=#6c8ebf;fontStyle=1" parent="27" vertex="1">
                    <mxGeometry x="2380" y="1370" width="490" height="442" as="geometry"/>
                </mxCell>
                <mxCell id="76" value="Shared Services" style="shape=ext;double=1;rounded=1;whiteSpace=wrap;html=1;fontSize=25;fillColor=#dae8fc;strokeColor=#6c8ebf;fontStyle=1" parent="27" vertex="1">
                    <mxGeometry x="1820" y="1680" width="480" height="443" as="geometry"/>
                </mxCell>
                <mxCell id="77" value="Workloads" style="shape=ext;double=1;rounded=1;whiteSpace=wrap;html=1;fontSize=25;fillColor=#dae8fc;strokeColor=#6c8ebf;fontStyle=1" parent="27" vertex="1">
                    <mxGeometry x="670" y="710" width="170" height="170" as="geometry"/>
                </mxCell>
                <mxCell id="78" value="Workloads" style="shape=ext;double=1;rounded=1;whiteSpace=wrap;html=1;fontSize=25;fillColor=#dae8fc;strokeColor=#6c8ebf;fontStyle=1" parent="27" vertex="1">
                    <mxGeometry x="670" y="450" width="170" height="170" as="geometry"/>
                </mxCell>
                <mxCell id="79" value="Workloads" style="shape=ext;double=1;rounded=1;whiteSpace=wrap;html=1;fontSize=25;fillColor=#dae8fc;strokeColor=#6c8ebf;fontStyle=1" parent="27" vertex="1">
                    <mxGeometry x="670" y="190" width="170" height="170" as="geometry"/>
                </mxCell>
                <mxCell id="80" value="Workloads" style="shape=ext;double=1;rounded=1;whiteSpace=wrap;html=1;fontSize=25;fillColor=#dae8fc;strokeColor=#6c8ebf;fontStyle=1" parent="27" vertex="1">
                    <mxGeometry x="1650" y="710" width="170" height="170" as="geometry"/>
                </mxCell>
                <mxCell id="81" value="Workloads" style="shape=ext;double=1;rounded=1;whiteSpace=wrap;html=1;fontSize=25;fillColor=#dae8fc;strokeColor=#6c8ebf;fontStyle=1" parent="27" vertex="1">
                    <mxGeometry x="1650" y="450" width="170" height="170" as="geometry"/>
                </mxCell>
                <mxCell id="82" value="Workloads" style="shape=ext;double=1;rounded=1;whiteSpace=wrap;html=1;fontSize=25;fillColor=#dae8fc;strokeColor=#6c8ebf;fontStyle=1" parent="27" vertex="1">
                    <mxGeometry x="1654" y="190" width="170" height="170" as="geometry"/>
                </mxCell>
                <mxCell id="83" value="Workloads" style="shape=ext;double=1;rounded=1;whiteSpace=wrap;html=1;fontSize=25;fillColor=#dae8fc;strokeColor=#6c8ebf;fontStyle=1" parent="27" vertex="1">
                    <mxGeometry x="2590" y="710" width="170" height="170" as="geometry"/>
                </mxCell>
                <mxCell id="84" value="Workloads" style="shape=ext;double=1;rounded=1;whiteSpace=wrap;html=1;fontSize=25;fillColor=#dae8fc;strokeColor=#6c8ebf;fontStyle=1" parent="27" vertex="1">
                    <mxGeometry x="2590" y="450" width="170" height="170" as="geometry"/>
                </mxCell>
                <mxCell id="85" value="Workloads" style="shape=ext;double=1;rounded=1;whiteSpace=wrap;html=1;fontSize=25;fillColor=#dae8fc;strokeColor=#6c8ebf;fontStyle=1" parent="27" vertex="1">
                    <mxGeometry x="2590" y="190" width="170" height="170" as="geometry"/>
                </mxCell>
                <mxCell id="86" value="Workloads" style="shape=ext;double=1;rounded=1;whiteSpace=wrap;html=1;fontSize=25;fillColor=#dae8fc;strokeColor=#6c8ebf;fontStyle=1" parent="27" vertex="1">
                    <mxGeometry x="3550" y="710" width="170" height="170" as="geometry"/>
                </mxCell>
                <mxCell id="89" value="Workloads" style="shape=ext;double=1;rounded=1;whiteSpace=wrap;html=1;fontSize=25;fillColor=#dae8fc;strokeColor=#6c8ebf;fontStyle=1" parent="27" vertex="1">
                    <mxGeometry x="3550" y="450" width="170" height="170" as="geometry"/>
                </mxCell>
                <mxCell id="90" value="Workloads" style="shape=ext;double=1;rounded=1;whiteSpace=wrap;html=1;fontSize=25;fillColor=#dae8fc;strokeColor=#6c8ebf;fontStyle=1" parent="27" vertex="1">
                    <mxGeometry x="3550" y="190" width="170" height="170" as="geometry"/>
                </mxCell>
                <mxCell id="91" value="Workloads" style="shape=ext;double=1;rounded=1;whiteSpace=wrap;html=1;fontSize=25;fillColor=#dae8fc;strokeColor=#6c8ebf;fontStyle=1" parent="27" vertex="1">
                    <mxGeometry x="4520" y="180" width="170" height="170" as="geometry"/>
                </mxCell>
                <mxCell id="92" value="Workloads" style="shape=ext;double=1;rounded=1;whiteSpace=wrap;html=1;fontSize=25;fillColor=#dae8fc;strokeColor=#6c8ebf;fontStyle=1" parent="27" vertex="1">
                    <mxGeometry x="4520" y="440" width="170" height="170" as="geometry"/>
                </mxCell>
                <mxCell id="93" value="Workloads" style="shape=ext;double=1;rounded=1;whiteSpace=wrap;html=1;fontSize=25;fillColor=#dae8fc;strokeColor=#6c8ebf;fontStyle=1" parent="27" vertex="1">
                    <mxGeometry x="4510" y="700" width="170" height="170" as="geometry"/>
                </mxCell>
                <mxCell id="41" value="Pipeline" style="locked=1;" parent="0"/>
                <mxCell id="102" value="" style="shape=cylinder3;whiteSpace=wrap;html=1;boundedLbl=1;backgroundOutline=1;size=15;labelBorderColor=none;fontSize=20;strokeWidth=2;fillColor=#d5e8d4;direction=south;strokeColor=#82b366;" parent="41" vertex="1">
                    <mxGeometry x="380" y="1360" width="1060" height="334" as="geometry"/>
                </mxCell>
                <mxCell id="103" value="Peer Review" style="html=1;verticalLabelPosition=bottom;align=center;labelBackgroundColor=none;verticalAlign=top;strokeWidth=2;strokeColor=#0080F0;shadow=0;dashed=0;shape=mxgraph.ios7.icons.glasses;labelBorderColor=none;fontSize=20;fillColor=default;gradientColor=none;" parent="41" vertex="1">
                    <mxGeometry x="1560" y="1470" width="140" height="56" as="geometry"/>
                </mxCell>
                <mxCell id="105" value="" style="sketch=0;html=1;aspect=fixed;strokeColor=none;shadow=0;align=center;verticalAlign=top;fillColor=#3B8DF1;shape=mxgraph.gcp2.arrow_cycle;labelBorderColor=none;fontSize=20;" parent="41" vertex="1">
                    <mxGeometry x="883.1600000000001" y="1970" width="73.68" height="70" as="geometry"/>
                </mxCell>
                <mxCell id="108" value="" style="sketch=0;html=1;aspect=fixed;strokeColor=none;shadow=0;align=center;verticalAlign=top;fillColor=#3B8DF1;shape=mxgraph.gcp2.arrow_cycle;labelBorderColor=none;fontSize=20;" parent="41" vertex="1">
                    <mxGeometry x="490" y="1970" width="73.68" height="70" as="geometry"/>
                </mxCell>
                <mxCell id="109" value="" style="sketch=0;html=1;aspect=fixed;strokeColor=none;shadow=0;align=center;verticalAlign=top;fillColor=#3B8DF1;shape=mxgraph.gcp2.arrow_cycle;labelBorderColor=none;fontSize=20;" parent="41" vertex="1">
                    <mxGeometry x="1276.32" y="1970" width="73.68" height="70" as="geometry"/>
                </mxCell>
                <mxCell id="110" value="" style="verticalLabelPosition=bottom;html=1;verticalAlign=top;align=center;strokeColor=none;fillColor=#00BEF2;shape=mxgraph.azure.git_repository;labelBorderColor=none;fontSize=20;" parent="41" vertex="1">
                    <mxGeometry x="4110" y="160" width="95.5" height="100" as="geometry"/>
                </mxCell>
                <mxCell id="111" value="" style="verticalLabelPosition=bottom;html=1;verticalAlign=top;align=center;strokeColor=none;fillColor=#00BEF2;shape=mxgraph.azure.git_repository;labelBorderColor=none;fontSize=20;fontStyle=1" parent="41" vertex="1">
                    <mxGeometry x="872.25" y="1720" width="95.5" height="100" as="geometry"/>
                </mxCell>
                <mxCell id="112" value="" style="verticalLabelPosition=bottom;html=1;verticalAlign=top;align=center;strokeColor=none;fillColor=#00BEF2;shape=mxgraph.azure.git_repository;labelBorderColor=none;fontSize=20;" parent="41" vertex="1">
                    <mxGeometry x="481.34" y="1720" width="95.5" height="100" as="geometry"/>
                </mxCell>
                <mxCell id="114" value="" style="sketch=0;pointerEvents=1;shadow=0;dashed=0;html=1;strokeColor=none;labelPosition=center;verticalLabelPosition=bottom;verticalAlign=top;align=center;fillColor=#515151;shape=mxgraph.mscae.system_center.admin_console;labelBorderColor=none;fontSize=20;" parent="41" vertex="1">
                    <mxGeometry x="481.34" y="2060" width="100" height="80" as="geometry"/>
                </mxCell>
                <mxCell id="115" value="" style="sketch=0;pointerEvents=1;shadow=0;dashed=0;html=1;strokeColor=none;labelPosition=center;verticalLabelPosition=bottom;verticalAlign=top;align=center;fillColor=#515151;shape=mxgraph.mscae.system_center.admin_console;labelBorderColor=none;fontSize=20;" parent="41" vertex="1">
                    <mxGeometry x="880.91" y="2060" width="100" height="80" as="geometry"/>
                </mxCell>
                <mxCell id="116" value="" style="sketch=0;pointerEvents=1;shadow=0;dashed=0;html=1;strokeColor=none;labelPosition=center;verticalLabelPosition=bottom;verticalAlign=top;align=center;fillColor=#515151;shape=mxgraph.mscae.system_center.admin_console;labelBorderColor=none;fontSize=20;" parent="41" vertex="1">
                    <mxGeometry x="1263.16" y="2060" width="100" height="80" as="geometry"/>
                </mxCell>
                <mxCell id="127" value="" style="verticalLabelPosition=bottom;html=1;verticalAlign=top;align=center;strokeColor=none;fillColor=#00BEF2;shape=mxgraph.azure.git_repository;labelBorderColor=none;fontSize=20;" parent="41" vertex="1">
                    <mxGeometry x="1263.16" y="1720" width="95.5" height="100" as="geometry"/>
                </mxCell>
                <mxCell id="166" value="" style="shape=mxgraph.cisco.people.androgenous_person;html=1;pointerEvents=1;dashed=0;fillColor=#036897;strokeColor=#ffffff;strokeWidth=2;verticalLabelPosition=bottom;verticalAlign=top;align=center;outlineConnect=0;labelBorderColor=none;fontSize=25;flipH=1;" parent="41" vertex="1">
                    <mxGeometry x="4530" y="1190" width="69" height="82" as="geometry"/>
                </mxCell>
                <mxCell id="167" value="" style="shape=mxgraph.cisco.people.androgenous_person;html=1;pointerEvents=1;dashed=0;fillColor=#036897;strokeColor=#ffffff;strokeWidth=2;verticalLabelPosition=bottom;verticalAlign=top;align=center;outlineConnect=0;labelBorderColor=none;fontSize=25;flipH=0;" parent="41" vertex="1">
                    <mxGeometry x="4220" y="1190" width="69" height="82" as="geometry"/>
                </mxCell>
                <mxCell id="169" value="" style="pointerEvents=1;fillColor=strokeColor;verticalLabelPosition=bottom;shadow=0;dashed=0;align=center;html=1;verticalAlign=top;shape=mxgraph.electrical.diodes.tunnel_diode_2;labelBackgroundColor=none;fontSize=20;flipH=1;direction=north;" parent="41" vertex="1">
                    <mxGeometry x="3400" y="1300" width="80" height="100" as="geometry"/>
                </mxCell>
                <mxCell id="185" value="" style="editableCssRules=.*;shape=image;verticalLabelPosition=bottom;labelBackgroundColor=#ffffff;verticalAlign=top;aspect=fixed;imageAspect=0;image=data:image/svg+xml,PHN2ZyB4bWxucz0iaHR0cDovL3d3dy53My5vcmcvMjAwMC9zdmciIHhtbG5zOnY9Imh0dHBzOi8vdmVjdGEuaW8vbmFubyIgd2lkdGg9IjM3Ny4xNTkzMDIxNjAyNjMwNSIgaGVpZ2h0PSIzMzYuMTYyNDk5MDAzMzEwOCIgdmlld0JveD0iLTAuMDU4MDAwMDA1NzgxNjUwNTQgMC4xMTI5OTk5OTgwMzMwNDY3MiA5OS43OTAwMDA5MTU1MjczNCA4OC45NDMwMDA3OTM0NTcwMyI+JiN4YTs8c3R5bGUgdHlwZT0idGV4dC9jc3MiPiYjeGE7CS5zdDB7ZmlsbDojNjY5ZGY2O30mI3hhOwkuc3Qxe2ZpbGw6I2FlY2JmYTt9JiN4YTsJLnN0MntmaWxsOiM0Mjg1ZjQ7fSYjeGE7PC9zdHlsZT4mI3hhOwk8cGF0aCBjbGFzcz0ic3QwIiBkPSJNNTMuMjQzIDYyLjA5VjQ3LjA5NGwxMy4yMDEgOC40MTZ2MTUuMDM4em0tMzMuMDIxIDBWNDcuMDk0bDEzLjIwMSA4LjQxNnYxNS4wMzh6bTE2LjUxMS0zMi4yODVWMTQuODFsMTMuMjAxIDguNDE2djE1LjAzOHptNjIuOTk5IDMzLjk2VjI1LjQwM2wtOS41NjItMS44ODR2NDIuMTMxem0tOTkuNzg4IDBWMjUuNDAzbDkuNTYyLTEuODg0djQyLjEzMXoiLz4mI3hhOwk8cGF0aCBjbGFzcz0ic3QxIiBkPSJNNTMuMTg1IDQ3LjA5NGwxMy4yNTgtOC4yODcgMTMuMDE2IDguMjM0LTEzLjAxNiA4LjQ2OXptLTMzLjAyMSAwbDEzLjI1OC04LjI4NyAxMy4wMTYgOC4yMzQtMTMuMDE2IDguNDY5ek0zNi42NzUgMTQuODFsMTMuMjU4LTguMjg3IDEzLjAxNiA4LjIzNC0xMy4wMTYgOC40Njl6bTYzLjA1NiA0OC45NTZ2MTIuMjE3TDc3LjAxIDg5LjA1NVY3Ny43NTJ6bTAtMzguMzYzVjEzLjE4Nkw3Ny4wMS4xMTN2MTEuMzAzek0tLjA1OCA2My43NjZ2MTIuMjE3bDIyLjcyMSAxMy4wNzNWNzcuNzUyem0wLTM4LjM2M1YxMy4xODZMMjIuNjYzLjExM3YxMS4zMDN6Ii8+JiN4YTsJPHBhdGggY2xhc3M9InN0MiIgZD0iTTY2LjQ0NCA3MC41NDdWNTUuNTFsMTMuMDE2LTguNDY5djE1LjR6bS0zMy4wMjEgMFY1NS41MWwxMy4wMTYtOC40Njl2MTUuNHptMTYuNTExLTMyLjI4NVYyMy4yMjVsMTMuMDE2LTguNDY5djE1LjR6bTQ5Ljc5OCAyNS41MDNsLTkuNTYyIDUuODh2LTMuOTk2em0wLTM4LjM2M2wtOS41NjItNS44OHYzLjk5NnpNLS4wNTggNjMuNzY2bDkuNTYyIDUuODh2LTMuOTk2em0wLTM4LjM2M2w5LjU2Mi01Ljg4djMuOTk2eiIvPiYjeGE7PC9zdmc+;fontSize=30;" parent="41" vertex="1">
                    <mxGeometry x="2141.08" y="1980" width="133.34" height="120" as="geometry"/>
                </mxCell>
                <mxCell id="186" value="" style="verticalLabelPosition=bottom;html=1;verticalAlign=top;align=center;strokeColor=none;fillColor=#00BEF2;shape=mxgraph.azure.git_repository;labelBorderColor=none;fontSize=20;" parent="41" vertex="1">
                    <mxGeometry x="2170" y="1730" width="95.5" height="100" as="geometry"/>
                </mxCell>
                <mxCell id="187" value="" style="editableCssRules=.*;shape=image;verticalLabelPosition=bottom;labelBackgroundColor=#ffffff;verticalAlign=top;aspect=fixed;imageAspect=0;image=data:image/svg+xml,PHN2ZyB4bWxucz0iaHR0cDovL3d3dy53My5vcmcvMjAwMC9zdmciIHhtbG5zOnY9Imh0dHBzOi8vdmVjdGEuaW8vbmFubyIgd2lkdGg9IjM3Ny4xNTkzMDIxNjAyNjMwNSIgaGVpZ2h0PSIzMzYuMTYyNDk5MDAzMzEwOCIgdmlld0JveD0iLTAuMDU4MDAwMDA1NzgxNjUwNTQgMC4xMTI5OTk5OTgwMzMwNDY3MiA5OS43OTAwMDA5MTU1MjczNCA4OC45NDMwMDA3OTM0NTcwMyI+JiN4YTs8c3R5bGUgdHlwZT0idGV4dC9jc3MiPiYjeGE7CS5zdDB7ZmlsbDojNjY5ZGY2O30mI3hhOwkuc3Qxe2ZpbGw6I2FlY2JmYTt9JiN4YTsJLnN0MntmaWxsOiM0Mjg1ZjQ7fSYjeGE7PC9zdHlsZT4mI3hhOwk8cGF0aCBjbGFzcz0ic3QwIiBkPSJNNTMuMjQzIDYyLjA5VjQ3LjA5NGwxMy4yMDEgOC40MTZ2MTUuMDM4em0tMzMuMDIxIDBWNDcuMDk0bDEzLjIwMSA4LjQxNnYxNS4wMzh6bTE2LjUxMS0zMi4yODVWMTQuODFsMTMuMjAxIDguNDE2djE1LjAzOHptNjIuOTk5IDMzLjk2VjI1LjQwM2wtOS41NjItMS44ODR2NDIuMTMxem0tOTkuNzg4IDBWMjUuNDAzbDkuNTYyLTEuODg0djQyLjEzMXoiLz4mI3hhOwk8cGF0aCBjbGFzcz0ic3QxIiBkPSJNNTMuMTg1IDQ3LjA5NGwxMy4yNTgtOC4yODcgMTMuMDE2IDguMjM0LTEzLjAxNiA4LjQ2OXptLTMzLjAyMSAwbDEzLjI1OC04LjI4NyAxMy4wMTYgOC4yMzQtMTMuMDE2IDguNDY5ek0zNi42NzUgMTQuODFsMTMuMjU4LTguMjg3IDEzLjAxNiA4LjIzNC0xMy4wMTYgOC40Njl6bTYzLjA1NiA0OC45NTZ2MTIuMjE3TDc3LjAxIDg5LjA1NVY3Ny43NTJ6bTAtMzguMzYzVjEzLjE4Nkw3Ny4wMS4xMTN2MTEuMzAzek0tLjA1OCA2My43NjZ2MTIuMjE3bDIyLjcyMSAxMy4wNzNWNzcuNzUyem0wLTM4LjM2M1YxMy4xODZMMjIuNjYzLjExM3YxMS4zMDN6Ii8+JiN4YTsJPHBhdGggY2xhc3M9InN0MiIgZD0iTTY2LjQ0NCA3MC41NDdWNTUuNTFsMTMuMDE2LTguNDY5djE1LjR6bS0zMy4wMjEgMFY1NS41MWwxMy4wMTYtOC40Njl2MTUuNHptMTYuNTExLTMyLjI4NVYyMy4yMjVsMTMuMDE2LTguNDY5djE1LjR6bTQ5Ljc5OCAyNS41MDNsLTkuNTYyIDUuODh2LTMuOTk2em0wLTM4LjM2M2wtOS41NjItNS44OHYzLjk5NnpNLS4wNTggNjMuNzY2bDkuNTYyIDUuODh2LTMuOTk2em0wLTM4LjM2M2w5LjU2Mi01Ljg4djMuOTk2eiIvPiYjeGE7PC9zdmc+;fontSize=30;" parent="41" vertex="1">
                    <mxGeometry x="3113.3" y="600" width="88.89" height="80" as="geometry"/>
                </mxCell>
                <mxCell id="189" value="" style="verticalLabelPosition=bottom;html=1;verticalAlign=top;align=center;strokeColor=none;fillColor=#00BEF2;shape=mxgraph.azure.git_repository;labelBorderColor=none;fontSize=20;" parent="41" vertex="1">
                    <mxGeometry x="3106.69" y="370" width="95.5" height="100" as="geometry"/>
                </mxCell>
                <mxCell id="190" value="" style="editableCssRules=.*;shape=image;verticalLabelPosition=bottom;labelBackgroundColor=#ffffff;verticalAlign=top;aspect=fixed;imageAspect=0;image=data:image/svg+xml,PHN2ZyB4bWxucz0iaHR0cDovL3d3dy53My5vcmcvMjAwMC9zdmciIHhtbG5zOnY9Imh0dHBzOi8vdmVjdGEuaW8vbmFubyIgd2lkdGg9IjM3Ny4xNTkzMDIxNjAyNjMwNSIgaGVpZ2h0PSIzMzYuMTYyNDk5MDAzMzEwOCIgdmlld0JveD0iLTAuMDU4MDAwMDA1NzgxNjUwNTQgMC4xMTI5OTk5OTgwMzMwNDY3MiA5OS43OTAwMDA5MTU1MjczNCA4OC45NDMwMDA3OTM0NTcwMyI+JiN4YTs8c3R5bGUgdHlwZT0idGV4dC9jc3MiPiYjeGE7CS5zdDB7ZmlsbDojNjY5ZGY2O30mI3hhOwkuc3Qxe2ZpbGw6I2FlY2JmYTt9JiN4YTsJLnN0MntmaWxsOiM0Mjg1ZjQ7fSYjeGE7PC9zdHlsZT4mI3hhOwk8cGF0aCBjbGFzcz0ic3QwIiBkPSJNNTMuMjQzIDYyLjA5VjQ3LjA5NGwxMy4yMDEgOC40MTZ2MTUuMDM4em0tMzMuMDIxIDBWNDcuMDk0bDEzLjIwMSA4LjQxNnYxNS4wMzh6bTE2LjUxMS0zMi4yODVWMTQuODFsMTMuMjAxIDguNDE2djE1LjAzOHptNjIuOTk5IDMzLjk2VjI1LjQwM2wtOS41NjItMS44ODR2NDIuMTMxem0tOTkuNzg4IDBWMjUuNDAzbDkuNTYyLTEuODg0djQyLjEzMXoiLz4mI3hhOwk8cGF0aCBjbGFzcz0ic3QxIiBkPSJNNTMuMTg1IDQ3LjA5NGwxMy4yNTgtOC4yODcgMTMuMDE2IDguMjM0LTEzLjAxNiA4LjQ2OXptLTMzLjAyMSAwbDEzLjI1OC04LjI4NyAxMy4wMTYgOC4yMzQtMTMuMDE2IDguNDY5ek0zNi42NzUgMTQuODFsMTMuMjU4LTguMjg3IDEzLjAxNiA4LjIzNC0xMy4wMTYgOC40Njl6bTYzLjA1NiA0OC45NTZ2MTIuMjE3TDc3LjAxIDg5LjA1NVY3Ny43NTJ6bTAtMzguMzYzVjEzLjE4Nkw3Ny4wMS4xMTN2MTEuMzAzek0tLjA1OCA2My43NjZ2MTIuMjE3bDIyLjcyMSAxMy4wNzNWNzcuNzUyem0wLTM4LjM2M1YxMy4xODZMMjIuNjYzLjExM3YxMS4zMDN6Ii8+JiN4YTsJPHBhdGggY2xhc3M9InN0MiIgZD0iTTY2LjQ0NCA3MC41NDdWNTUuNTFsMTMuMDE2LTguNDY5djE1LjR6bS0zMy4wMjEgMFY1NS41MWwxMy4wMTYtOC40Njl2MTUuNHptMTYuNTExLTMyLjI4NVYyMy4yMjVsMTMuMDE2LTguNDY5djE1LjR6bTQ5Ljc5OCAyNS41MDNsLTkuNTYyIDUuODh2LTMuOTk2em0wLTM4LjM2M2wtOS41NjItNS44OHYzLjk5NnpNLS4wNTggNjMuNzY2bDkuNTYyIDUuODh2LTMuOTk2em0wLTM4LjM2M2w5LjU2Mi01Ljg4djMuOTk2eiIvPiYjeGE7PC9zdmc+;fontSize=30;" parent="41" vertex="1">
                    <mxGeometry x="4116.61" y="260" width="88.89" height="80" as="geometry"/>
                </mxCell>
                <mxCell id="193" value="" style="verticalLabelPosition=bottom;html=1;verticalAlign=top;align=center;strokeColor=none;fillColor=#00BEF2;shape=mxgraph.azure.git_repository;labelBorderColor=none;fontSize=20;" parent="41" vertex="1">
                    <mxGeometry x="4110" y="420" width="95.5" height="100" as="geometry"/>
                </mxCell>
                <mxCell id="194" value="" style="editableCssRules=.*;shape=image;verticalLabelPosition=bottom;labelBackgroundColor=#ffffff;verticalAlign=top;aspect=fixed;imageAspect=0;image=data:image/svg+xml,PHN2ZyB4bWxucz0iaHR0cDovL3d3dy53My5vcmcvMjAwMC9zdmciIHhtbG5zOnY9Imh0dHBzOi8vdmVjdGEuaW8vbmFubyIgd2lkdGg9IjM3Ny4xNTkzMDIxNjAyNjMwNSIgaGVpZ2h0PSIzMzYuMTYyNDk5MDAzMzEwOCIgdmlld0JveD0iLTAuMDU4MDAwMDA1NzgxNjUwNTQgMC4xMTI5OTk5OTgwMzMwNDY3MiA5OS43OTAwMDA5MTU1MjczNCA4OC45NDMwMDA3OTM0NTcwMyI+JiN4YTs8c3R5bGUgdHlwZT0idGV4dC9jc3MiPiYjeGE7CS5zdDB7ZmlsbDojNjY5ZGY2O30mI3hhOwkuc3Qxe2ZpbGw6I2FlY2JmYTt9JiN4YTsJLnN0MntmaWxsOiM0Mjg1ZjQ7fSYjeGE7PC9zdHlsZT4mI3hhOwk8cGF0aCBjbGFzcz0ic3QwIiBkPSJNNTMuMjQzIDYyLjA5VjQ3LjA5NGwxMy4yMDEgOC40MTZ2MTUuMDM4em0tMzMuMDIxIDBWNDcuMDk0bDEzLjIwMSA4LjQxNnYxNS4wMzh6bTE2LjUxMS0zMi4yODVWMTQuODFsMTMuMjAxIDguNDE2djE1LjAzOHptNjIuOTk5IDMzLjk2VjI1LjQwM2wtOS41NjItMS44ODR2NDIuMTMxem0tOTkuNzg4IDBWMjUuNDAzbDkuNTYyLTEuODg0djQyLjEzMXoiLz4mI3hhOwk8cGF0aCBjbGFzcz0ic3QxIiBkPSJNNTMuMTg1IDQ3LjA5NGwxMy4yNTgtOC4yODcgMTMuMDE2IDguMjM0LTEzLjAxNiA4LjQ2OXptLTMzLjAyMSAwbDEzLjI1OC04LjI4NyAxMy4wMTYgOC4yMzQtMTMuMDE2IDguNDY5ek0zNi42NzUgMTQuODFsMTMuMjU4LTguMjg3IDEzLjAxNiA4LjIzNC0xMy4wMTYgOC40Njl6bTYzLjA1NiA0OC45NTZ2MTIuMjE3TDc3LjAxIDg5LjA1NVY3Ny43NTJ6bTAtMzguMzYzVjEzLjE4Nkw3Ny4wMS4xMTN2MTEuMzAzek0tLjA1OCA2My43NjZ2MTIuMjE3bDIyLjcyMSAxMy4wNzNWNzcuNzUyem0wLTM4LjM2M1YxMy4xODZMMjIuNjYzLjExM3YxMS4zMDN6Ii8+JiN4YTsJPHBhdGggY2xhc3M9InN0MiIgZD0iTTY2LjQ0NCA3MC41NDdWNTUuNTFsMTMuMDE2LTguNDY5djE1LjR6bS0zMy4wMjEgMFY1NS41MWwxMy4wMTYtOC40Njl2MTUuNHptMTYuNTExLTMyLjI4NVYyMy4yMjVsMTMuMDE2LTguNDY5djE1LjR6bTQ5Ljc5OCAyNS41MDNsLTkuNTYyIDUuODh2LTMuOTk2em0wLTM4LjM2M2wtOS41NjItNS44OHYzLjk5NnpNLS4wNTggNjMuNzY2bDkuNTYyIDUuODh2LTMuOTk2em0wLTM4LjM2M2w5LjU2Mi01Ljg4djMuOTk2eiIvPiYjeGE7PC9zdmc+;fontSize=30;" parent="41" vertex="1">
                    <mxGeometry x="4116.61" y="520" width="88.89" height="80" as="geometry"/>
                </mxCell>
                <mxCell id="195" value="" style="verticalLabelPosition=bottom;html=1;verticalAlign=top;align=center;strokeColor=none;fillColor=#00BEF2;shape=mxgraph.azure.git_repository;labelBorderColor=none;fontSize=20;" parent="41" vertex="1">
                    <mxGeometry x="4110" y="700" width="95.5" height="100" as="geometry"/>
                </mxCell>
                <mxCell id="196" value="" style="editableCssRules=.*;shape=image;verticalLabelPosition=bottom;labelBackgroundColor=#ffffff;verticalAlign=top;aspect=fixed;imageAspect=0;image=data:image/svg+xml,PHN2ZyB4bWxucz0iaHR0cDovL3d3dy53My5vcmcvMjAwMC9zdmciIHhtbG5zOnY9Imh0dHBzOi8vdmVjdGEuaW8vbmFubyIgd2lkdGg9IjM3Ny4xNTkzMDIxNjAyNjMwNSIgaGVpZ2h0PSIzMzYuMTYyNDk5MDAzMzEwOCIgdmlld0JveD0iLTAuMDU4MDAwMDA1NzgxNjUwNTQgMC4xMTI5OTk5OTgwMzMwNDY3MiA5OS43OTAwMDA5MTU1MjczNCA4OC45NDMwMDA3OTM0NTcwMyI+JiN4YTs8c3R5bGUgdHlwZT0idGV4dC9jc3MiPiYjeGE7CS5zdDB7ZmlsbDojNjY5ZGY2O30mI3hhOwkuc3Qxe2ZpbGw6I2FlY2JmYTt9JiN4YTsJLnN0MntmaWxsOiM0Mjg1ZjQ7fSYjeGE7PC9zdHlsZT4mI3hhOwk8cGF0aCBjbGFzcz0ic3QwIiBkPSJNNTMuMjQzIDYyLjA5VjQ3LjA5NGwxMy4yMDEgOC40MTZ2MTUuMDM4em0tMzMuMDIxIDBWNDcuMDk0bDEzLjIwMSA4LjQxNnYxNS4wMzh6bTE2LjUxMS0zMi4yODVWMTQuODFsMTMuMjAxIDguNDE2djE1LjAzOHptNjIuOTk5IDMzLjk2VjI1LjQwM2wtOS41NjItMS44ODR2NDIuMTMxem0tOTkuNzg4IDBWMjUuNDAzbDkuNTYyLTEuODg0djQyLjEzMXoiLz4mI3hhOwk8cGF0aCBjbGFzcz0ic3QxIiBkPSJNNTMuMTg1IDQ3LjA5NGwxMy4yNTgtOC4yODcgMTMuMDE2IDguMjM0LTEzLjAxNiA4LjQ2OXptLTMzLjAyMSAwbDEzLjI1OC04LjI4NyAxMy4wMTYgOC4yMzQtMTMuMDE2IDguNDY5ek0zNi42NzUgMTQuODFsMTMuMjU4LTguMjg3IDEzLjAxNiA4LjIzNC0xMy4wMTYgOC40Njl6bTYzLjA1NiA0OC45NTZ2MTIuMjE3TDc3LjAxIDg5LjA1NVY3Ny43NTJ6bTAtMzguMzYzVjEzLjE4Nkw3Ny4wMS4xMTN2MTEuMzAzek0tLjA1OCA2My43NjZ2MTIuMjE3bDIyLjcyMSAxMy4wNzNWNzcuNzUyem0wLTM4LjM2M1YxMy4xODZMMjIuNjYzLjExM3YxMS4zMDN6Ii8+JiN4YTsJPHBhdGggY2xhc3M9InN0MiIgZD0iTTY2LjQ0NCA3MC41NDdWNTUuNTFsMTMuMDE2LTguNDY5djE1LjR6bS0zMy4wMjEgMFY1NS41MWwxMy4wMTYtOC40Njl2MTUuNHptMTYuNTExLTMyLjI4NVYyMy4yMjVsMTMuMDE2LTguNDY5djE1LjR6bTQ5Ljc5OCAyNS41MDNsLTkuNTYyIDUuODh2LTMuOTk2em0wLTM4LjM2M2wtOS41NjItNS44OHYzLjk5NnpNLS4wNTggNjMuNzY2bDkuNTYyIDUuODh2LTMuOTk2em0wLTM4LjM2M2w5LjU2Mi01Ljg4djMuOTk2eiIvPiYjeGE7PC9zdmc+;fontSize=30;" parent="41" vertex="1">
                    <mxGeometry x="4116.61" y="800" width="88.89" height="80" as="geometry"/>
                </mxCell>
                <mxCell id="125" value="Config" style="locked=1;" parent="0"/>
                <mxCell id="132" value="Secrets" style="aspect=fixed;html=1;points=[];align=center;image;fontSize=20;image=img/lib/azure2/security/Key_Vaults.svg;labelBackgroundColor=none;" parent="125" vertex="1">
                    <mxGeometry x="390" y="170" width="80" height="80" as="geometry"/>
                </mxCell>
                <mxCell id="133" value="Configuration" style="html=1;verticalLabelPosition=bottom;align=center;labelBackgroundColor=none;verticalAlign=top;strokeWidth=2;strokeColor=#0080F0;shadow=0;dashed=0;shape=mxgraph.ios7.icons.settings;fontSize=20;" parent="125" vertex="1">
                    <mxGeometry x="390" y="300" width="80" height="70" as="geometry"/>
                </mxCell>
                <mxCell id="135" value="Secrets" style="aspect=fixed;html=1;points=[];align=center;image;fontSize=20;image=img/lib/azure2/security/Key_Vaults.svg;labelBackgroundColor=none;" parent="125" vertex="1">
                    <mxGeometry x="390" y="440" width="80" height="80" as="geometry"/>
                </mxCell>
                <mxCell id="136" value="Configuration" style="html=1;verticalLabelPosition=bottom;align=center;labelBackgroundColor=none;verticalAlign=top;strokeWidth=2;strokeColor=#0080F0;shadow=0;dashed=0;shape=mxgraph.ios7.icons.settings;fontSize=20;" parent="125" vertex="1">
                    <mxGeometry x="390" y="570" width="80" height="70" as="geometry"/>
                </mxCell>
                <mxCell id="137" value="Secrets" style="aspect=fixed;html=1;points=[];align=center;image;fontSize=20;image=img/lib/azure2/security/Key_Vaults.svg;labelBackgroundColor=none;" parent="125" vertex="1">
                    <mxGeometry x="390" y="700" width="80" height="80" as="geometry"/>
                </mxCell>
                <mxCell id="138" value="Configuration" style="html=1;verticalLabelPosition=bottom;align=center;labelBackgroundColor=none;verticalAlign=top;strokeWidth=2;strokeColor=#0080F0;shadow=0;dashed=0;shape=mxgraph.ios7.icons.settings;fontSize=20;" parent="125" vertex="1">
                    <mxGeometry x="390" y="830" width="80" height="70" as="geometry"/>
                </mxCell>
                <mxCell id="140" value="Secrets" style="aspect=fixed;html=1;points=[];align=center;image;fontSize=20;image=img/lib/azure2/security/Key_Vaults.svg;labelBackgroundColor=none;" parent="125" vertex="1">
                    <mxGeometry x="1350" y="180" width="80" height="80" as="geometry"/>
                </mxCell>
                <mxCell id="141" value="Configuration" style="html=1;verticalLabelPosition=bottom;align=center;labelBackgroundColor=none;verticalAlign=top;strokeWidth=2;strokeColor=#0080F0;shadow=0;dashed=0;shape=mxgraph.ios7.icons.settings;fontSize=20;" parent="125" vertex="1">
                    <mxGeometry x="1350" y="310" width="80" height="70" as="geometry"/>
                </mxCell>
                <mxCell id="142" value="Secrets" style="aspect=fixed;html=1;points=[];align=center;image;fontSize=20;image=img/lib/azure2/security/Key_Vaults.svg;labelBackgroundColor=none;" parent="125" vertex="1">
                    <mxGeometry x="1350" y="450" width="80" height="80" as="geometry"/>
                </mxCell>
                <mxCell id="143" value="Configuration" style="html=1;verticalLabelPosition=bottom;align=center;labelBackgroundColor=none;verticalAlign=top;strokeWidth=2;strokeColor=#0080F0;shadow=0;dashed=0;shape=mxgraph.ios7.icons.settings;fontSize=20;" parent="125" vertex="1">
                    <mxGeometry x="1350" y="580" width="80" height="70" as="geometry"/>
                </mxCell>
                <mxCell id="144" value="Secrets" style="aspect=fixed;html=1;points=[];align=center;image;fontSize=20;image=img/lib/azure2/security/Key_Vaults.svg;labelBackgroundColor=none;" parent="125" vertex="1">
                    <mxGeometry x="1350" y="710" width="80" height="80" as="geometry"/>
                </mxCell>
                <mxCell id="145" value="Configuration" style="html=1;verticalLabelPosition=bottom;align=center;labelBackgroundColor=none;verticalAlign=top;strokeWidth=2;strokeColor=#0080F0;shadow=0;dashed=0;shape=mxgraph.ios7.icons.settings;fontSize=20;" parent="125" vertex="1">
                    <mxGeometry x="1350" y="840" width="80" height="70" as="geometry"/>
                </mxCell>
                <mxCell id="146" value="Secrets" style="aspect=fixed;html=1;points=[];align=center;image;fontSize=20;image=img/lib/azure2/security/Key_Vaults.svg;labelBackgroundColor=none;" parent="125" vertex="1">
                    <mxGeometry x="2280" y="170" width="80" height="80" as="geometry"/>
                </mxCell>
                <mxCell id="147" value="Configuration" style="html=1;verticalLabelPosition=bottom;align=center;labelBackgroundColor=none;verticalAlign=top;strokeWidth=2;strokeColor=#0080F0;shadow=0;dashed=0;shape=mxgraph.ios7.icons.settings;fontSize=20;" parent="125" vertex="1">
                    <mxGeometry x="2280" y="300" width="80" height="70" as="geometry"/>
                </mxCell>
                <mxCell id="148" value="Secrets" style="aspect=fixed;html=1;points=[];align=center;image;fontSize=20;image=img/lib/azure2/security/Key_Vaults.svg;labelBackgroundColor=none;" parent="125" vertex="1">
                    <mxGeometry x="2280" y="440" width="80" height="80" as="geometry"/>
                </mxCell>
                <mxCell id="149" value="Configuration" style="html=1;verticalLabelPosition=bottom;align=center;labelBackgroundColor=none;verticalAlign=top;strokeWidth=2;strokeColor=#0080F0;shadow=0;dashed=0;shape=mxgraph.ios7.icons.settings;fontSize=20;" parent="125" vertex="1">
                    <mxGeometry x="2280" y="570" width="80" height="70" as="geometry"/>
                </mxCell>
                <mxCell id="150" value="Secrets" style="aspect=fixed;html=1;points=[];align=center;image;fontSize=20;image=img/lib/azure2/security/Key_Vaults.svg;labelBackgroundColor=none;" parent="125" vertex="1">
                    <mxGeometry x="2280" y="700" width="80" height="80" as="geometry"/>
                </mxCell>
                <mxCell id="151" value="Configuration" style="html=1;verticalLabelPosition=bottom;align=center;labelBackgroundColor=none;verticalAlign=top;strokeWidth=2;strokeColor=#0080F0;shadow=0;dashed=0;shape=mxgraph.ios7.icons.settings;fontSize=20;" parent="125" vertex="1">
                    <mxGeometry x="2280" y="830" width="80" height="70" as="geometry"/>
                </mxCell>
                <mxCell id="152" value="Secrets" style="aspect=fixed;html=1;points=[];align=center;image;fontSize=20;image=img/lib/azure2/security/Key_Vaults.svg;labelBackgroundColor=none;" parent="125" vertex="1">
                    <mxGeometry x="3308" y="170" width="80" height="80" as="geometry"/>
                </mxCell>
                <mxCell id="153" value="Configuration" style="html=1;verticalLabelPosition=bottom;align=center;labelBackgroundColor=none;verticalAlign=top;strokeWidth=2;strokeColor=#0080F0;shadow=0;dashed=0;shape=mxgraph.ios7.icons.settings;fontSize=20;" parent="125" vertex="1">
                    <mxGeometry x="3308" y="300" width="80" height="70" as="geometry"/>
                </mxCell>
                <mxCell id="154" value="Secrets" style="aspect=fixed;html=1;points=[];align=center;image;fontSize=20;image=img/lib/azure2/security/Key_Vaults.svg;labelBackgroundColor=none;" parent="125" vertex="1">
                    <mxGeometry x="3308" y="440" width="80" height="80" as="geometry"/>
                </mxCell>
                <mxCell id="155" value="Configuration" style="html=1;verticalLabelPosition=bottom;align=center;labelBackgroundColor=none;verticalAlign=top;strokeWidth=2;strokeColor=#0080F0;shadow=0;dashed=0;shape=mxgraph.ios7.icons.settings;fontSize=20;" parent="125" vertex="1">
                    <mxGeometry x="3308" y="570" width="80" height="70" as="geometry"/>
                </mxCell>
                <mxCell id="156" value="Secrets" style="aspect=fixed;html=1;points=[];align=center;image;fontSize=20;image=img/lib/azure2/security/Key_Vaults.svg;labelBackgroundColor=none;" parent="125" vertex="1">
                    <mxGeometry x="3308" y="700" width="80" height="80" as="geometry"/>
                </mxCell>
                <mxCell id="157" value="Configuration" style="html=1;verticalLabelPosition=bottom;align=center;labelBackgroundColor=none;verticalAlign=top;strokeWidth=2;strokeColor=#0080F0;shadow=0;dashed=0;shape=mxgraph.ios7.icons.settings;fontSize=20;" parent="125" vertex="1">
                    <mxGeometry x="3308" y="830" width="80" height="70" as="geometry"/>
                </mxCell>
                <mxCell id="158" value="Secrets" style="aspect=fixed;html=1;points=[];align=center;image;fontSize=20;image=img/lib/azure2/security/Key_Vaults.svg;labelBackgroundColor=none;" parent="125" vertex="1">
                    <mxGeometry x="4300" y="180" width="80" height="80" as="geometry"/>
                </mxCell>
                <mxCell id="159" value="Configuration" style="html=1;verticalLabelPosition=bottom;align=center;labelBackgroundColor=none;verticalAlign=top;strokeWidth=2;strokeColor=#0080F0;shadow=0;dashed=0;shape=mxgraph.ios7.icons.settings;fontSize=20;" parent="125" vertex="1">
                    <mxGeometry x="4300" y="310" width="80" height="70" as="geometry"/>
                </mxCell>
                <mxCell id="160" value="Secrets" style="aspect=fixed;html=1;points=[];align=center;image;fontSize=20;image=img/lib/azure2/security/Key_Vaults.svg;labelBackgroundColor=none;" parent="125" vertex="1">
                    <mxGeometry x="4300" y="450" width="80" height="80" as="geometry"/>
                </mxCell>
                <mxCell id="161" value="Configuration" style="html=1;verticalLabelPosition=bottom;align=center;labelBackgroundColor=none;verticalAlign=top;strokeWidth=2;strokeColor=#0080F0;shadow=0;dashed=0;shape=mxgraph.ios7.icons.settings;fontSize=20;" parent="125" vertex="1">
                    <mxGeometry x="4300" y="580" width="80" height="70" as="geometry"/>
                </mxCell>
                <mxCell id="162" value="Secrets" style="aspect=fixed;html=1;points=[];align=center;image;fontSize=20;image=img/lib/azure2/security/Key_Vaults.svg;labelBackgroundColor=none;" parent="125" vertex="1">
                    <mxGeometry x="4300" y="710" width="80" height="80" as="geometry"/>
                </mxCell>
                <mxCell id="163" value="Configuration" style="html=1;verticalLabelPosition=bottom;align=center;labelBackgroundColor=none;verticalAlign=top;strokeWidth=2;strokeColor=#0080F0;shadow=0;dashed=0;shape=mxgraph.ios7.icons.settings;fontSize=20;" parent="125" vertex="1">
                    <mxGeometry x="4300" y="840" width="80" height="70" as="geometry"/>
                </mxCell>
                <mxCell id="94" value="Apps" style="locked=1;" parent="0"/>
                <mxCell id="172" value="Private Network" style="aspect=fixed;perimeter=ellipsePerimeter;html=1;align=center;shadow=0;dashed=0;spacingTop=3;image;image=img/lib/active_directory/internet_cloud.svg;labelBackgroundColor=none;fontSize=40;fontStyle=1;labelPosition=center;verticalLabelPosition=middle;verticalAlign=middle;" parent="94" vertex="1">
                    <mxGeometry x="3050" y="-650" width="777.77" height="490" as="geometry"/>
                </mxCell>
                <mxCell id="173" value="" style="sketch=0;outlineConnect=0;fontColor=#232F3E;gradientColor=none;fillColor=#232F3D;strokeColor=none;dashed=0;verticalLabelPosition=bottom;verticalAlign=top;align=center;html=1;fontSize=12;fontStyle=0;aspect=fixed;pointerEvents=1;shape=mxgraph.aws4.user;labelBackgroundColor=none;" parent="94" vertex="1">
                    <mxGeometry x="170" y="-1040" width="180" height="180" as="geometry"/>
                </mxCell>
                <mxCell id="174" value="" style="sketch=0;outlineConnect=0;fontColor=#232F3E;gradientColor=none;fillColor=#232F3D;strokeColor=none;dashed=0;verticalLabelPosition=bottom;verticalAlign=top;align=center;html=1;fontSize=12;fontStyle=0;aspect=fixed;pointerEvents=1;shape=mxgraph.aws4.user;labelBackgroundColor=none;" parent="94" vertex="1">
                    <mxGeometry x="4610" y="-1040" width="180" height="180" as="geometry"/>
                </mxCell>
                <mxCell id="175" value="Public Internet" style="aspect=fixed;perimeter=ellipsePerimeter;html=1;align=center;shadow=0;dashed=0;spacingTop=3;image;image=img/lib/active_directory/internet_cloud.svg;labelBackgroundColor=none;fontSize=40;fontStyle=1;labelPosition=center;verticalLabelPosition=middle;verticalAlign=middle;" parent="94" vertex="1">
                    <mxGeometry x="650" y="-640" width="777.77" height="490" as="geometry"/>
                </mxCell>
                <mxCell id="178" value="Lines" style="locked=1;" parent="0"/>
                <mxCell id="179" value="" style="endArrow=classic;html=1;fontSize=30;entryX=0.5;entryY=0;entryDx=0;entryDy=0;strokeWidth=3;" parent="178" target="175" edge="1">
                    <mxGeometry width="50" height="50" relative="1" as="geometry">
                        <mxPoint x="341.818181818182" y="-950" as="sourcePoint"/>
                        <mxPoint x="1098.8850000000002" y="-690" as="targetPoint"/>
                        <Array as="points">
                            <mxPoint x="1039" y="-950"/>
                        </Array>
                    </mxGeometry>
                </mxCell>
                <mxCell id="180" value="" style="endArrow=classic;html=1;fontSize=30;entryX=0.5;entryY=0;entryDx=0;entryDy=0;strokeWidth=3;" parent="178" source="174" target="172" edge="1">
                    <mxGeometry width="50" height="50" relative="1" as="geometry">
                        <mxPoint x="4618.181818181818" y="-949.7721576668946" as="sourcePoint"/>
                        <mxPoint x="1108.8850000000002" y="-680" as="targetPoint"/>
                        <Array as="points">
                            <mxPoint x="3439" y="-950"/>
                        </Array>
                    </mxGeometry>
                </mxCell>
                <mxCell id="181" value="" style="endArrow=classic;html=1;fontSize=30;strokeWidth=3;exitX=0.5;exitY=1;exitDx=0;exitDy=0;entryX=0.5;entryY=0;entryDx=0;entryDy=0;" parent="178" source="175" target="122" edge="1">
                    <mxGeometry width="50" height="50" relative="1" as="geometry">
                        <mxPoint x="920" y="-70" as="sourcePoint"/>
                        <mxPoint x="1080" y="-70" as="targetPoint"/>
                    </mxGeometry>
                </mxCell>
                <mxCell id="182" value="" style="endArrow=classic;html=1;fontSize=30;strokeWidth=3;exitX=0.5;exitY=1;exitDx=0;exitDy=0;" parent="178" source="172" edge="1">
                    <mxGeometry width="50" height="50" relative="1" as="geometry">
                        <mxPoint x="3910" y="-80" as="sourcePoint"/>
                        <mxPoint x="3445" y="10" as="targetPoint"/>
                    </mxGeometry>
                </mxCell>
                <mxCell id="183" value="" style="endArrow=classic;html=1;fontSize=30;strokeWidth=3;exitX=1;exitY=0.5;exitDx=0;exitDy=0;entryX=0;entryY=0.5;entryDx=0;entryDy=0;entryPerimeter=0;rounded=0;" parent="178" source="185" target="169" edge="1">
                    <mxGeometry width="50" height="50" relative="1" as="geometry">
                        <mxPoint x="3450" y="1870" as="sourcePoint"/>
                        <mxPoint x="3500" y="1820" as="targetPoint"/>
                        <Array as="points">
                            <mxPoint x="3440" y="2040"/>
                        </Array>
                    </mxGeometry>
                </mxCell>
                <mxCell id="197" value="" style="endArrow=classic;html=1;fontSize=30;strokeWidth=3;exitX=1;exitY=0.75;exitDx=0;exitDy=0;entryX=0.5;entryY=1;entryDx=0;entryDy=0;rounded=0;dashed=1;" parent="178" source="185" target="64" edge="1">
                    <mxGeometry width="50" height="50" relative="1" as="geometry">
                        <mxPoint x="2310" y="1911.5" as="sourcePoint"/>
                        <mxPoint x="3450" y="1410" as="targetPoint"/>
                        <Array as="points">
                            <mxPoint x="4420" y="2070"/>
                        </Array>
                    </mxGeometry>
                </mxCell>
                <mxCell id="198" value="" style="endArrow=classic;html=1;rounded=0;fontSize=30;strokeWidth=3;entryX=0.5;entryY=0;entryDx=0;entryDy=0;entryPerimeter=0;exitX=0;exitY=0.25;exitDx=0;exitDy=0;" parent="178" source="75" target="186" edge="1">
                    <mxGeometry width="50" height="50" relative="1" as="geometry">
                        <mxPoint x="3160" y="1320" as="sourcePoint"/>
                        <mxPoint x="3210" y="1270" as="targetPoint"/>
                        <Array as="points">
                            <mxPoint x="2218" y="1481"/>
                        </Array>
                    </mxGeometry>
                </mxCell>
            </root>
        </mxGraphModel>
    </diagram>
</mxfile>